<?xml version="1.0" encoding="UTF-8"?>
<!DOCTYPE svg  PUBLIC '-//W3C//DTD SVG 1.1//EN'  'http://www.w3.org/Graphics/SVG/1.1/DTD/svg11.dtd'>
<svg width="100" height="100" version="1.1" viewBox="0 0 500 500" xml:space="preserve" xmlns="http://www.w3.org/2000/svg">
<desc>Created with Fabric.js 4.6.0</desc>

<g transform="matrix(1.54 0 0 1.54 250 249.66)">
<g vector-effect="non-scaling-stroke" style="">
		<g transform="scale(.54)">
<g vector-effect="non-scaling-stroke" style="">
		<g transform="translate(-129.53 193.84)">
<path transform="translate(-170.47 -493.84)" d="m258.85 518.5c5.273-9.133 2.144-20.81-6.989-26.083v0c-9.132-5.273-20.81-2.144-26.083 6.989l-23.677 41.029-88.191-152.75-34.392 59.569 79.311 137.37c5.495 9.518 15.651 15.381 26.641 15.381h26.312l47.068-81.503z" fill="#FCBF49" stroke-linecap="round" vector-effect="non-scaling-stroke"/>
</g>
		<g transform="translate(-129.05 -85.92)">
<path transform="translate(-170.95 -214.08)" d="m260.97 94.787-192.47 333.37-24.191-41.901c-5.495-9.518-5.495-21.244 0-30.762l114.53-198.37c5.495-9.518 15.65-15.381 26.641-15.381h4.287l38.135-66.051c5.273-9.133 16.95-12.262 26.083-6.989 9.132 5.271 12.261 16.949 6.989 26.081zm2.558-42.618c9.133 5.272 20.81 2.144 26.083-6.989l9.547-16.536c5.273-9.133 2.144-20.81-6.989-26.083-9.133-5.273-20.81-2.144-26.083 6.989l-9.547 16.536c-5.273 9.132-2.144 20.81 6.989 26.083z" fill="#FCBF49" stroke-linecap="round" vector-effect="non-scaling-stroke"/>
</g>
		<g transform="translate(90.66 30.86)">
<path transform="translate(-390.66 -330.86)" d="m555.69 355.49-114.53-198.36c-5.495-9.518-15.651-15.381-26.641-15.381h-26.335l11.767-20.381c5.273-9.132 2.144-20.81-6.989-26.083v0c-9.133-5.272-20.81-2.143-26.083 6.989l-29.458 51.024c-5.273 9.133-16.95 12.262-26.083 6.989-9.132-5.273-12.261-16.95-6.989-26.083l25.312-43.842c5.273-9.132 2.144-20.81-6.989-26.083v0c-9.133-5.273-20.81-2.144-26.083 6.989l-75.085 130.05h176.38l97.895 169.56-97.895 169.56h-63.502l32.928-57.032c5.273-9.132 2.143-20.81-6.989-26.083v0c-9.132-5.272-20.81-2.144-26.083 6.989l-78.363 135.69h158.64c10.99 0 21.146-5.863 26.641-15.381l114.53-198.36c5.495-9.518 5.495-21.245 0-30.763z" fill="#FCBF49" stroke-linecap="round" vector-effect="non-scaling-stroke"/>
</g>
</g>
</g>
		<g transform="matrix(.34 .07 -.07 .34 -.33 37.47)">
<g vector-effect="non-scaling-stroke" style="">
		<g transform="translate(-.22 -111.39)">
<path transform="translate(-299.78 -188.61)" d="m594.21 235.27-273.04-92.708 69.822-129.95 203.22 222.65zm-588.86 129.33 142.71-52.133 173.11-169.91-224.61-65.278-91.213 287.32z" fill="#D62828" stroke-linecap="round" vector-effect="non-scaling-stroke"/>
</g>
		<g transform="translate(71.13 -23.95)">
<path transform="translate(-371.13 -276.05)" d="m594.21 235.27-189.21 174.27-256.95-97.068 173.11-169.91 273.04 92.708z" fill="#D62828" stroke-linecap="round" vector-effect="non-scaling-stroke"/>
</g>
		<g transform="translate(71.13 111.26)">
<path transform="translate(-371.13 -411.26)" d="m208.56 587.26-60.514-274.78 256.95 97.068-196.43 177.72zm294.43-64.667 91.212-287.32-189.21 174.27 97.996 113.05z" fill="#D62828" stroke-linecap="round" vector-effect="non-scaling-stroke"/>
</g>
		<g transform="translate(55.78 198.4)">
<path transform="translate(-355.78 -498.4)" d="m405 409.54-196.43 177.72 294.43-64.667z" fill="#D62828" stroke-linecap="round" vector-effect="non-scaling-stroke"/>
</g>
		<g transform="translate(-101.83 -.07)">
<path transform="translate(-198.17 -299.93)" d="m5.344 364.6 142.71-52.133 60.515 274.79-203.22-222.65zm385.64-351.99-294.43 64.669 224.61 65.277 69.822-129.95z" fill="#D62828" stroke-linecap="round" vector-effect="non-scaling-stroke"/>
</g>
		<g>
<path transform="translate(-300 -300)" d="m598.15 231.67-203.22-222.65c-1.288-1.41-3.229-2.023-5.093-1.616 0 0-294.2 64.617-294.44 64.669-2.218 0.491-3.38 1.363-3.943 3.603-1e-3 3e-3 -91.214 287.32-91.214 287.32-0.577 1.819-0.141 3.809 1.146 5.22 1.884 2.063 199.69 218.82 203.19 222.73 1.645 1.836 2.679 2.081 5.124 1.538l294.43-64.667c1.865-0.41 3.37-1.782 3.947-3.602 0 0 90.957-286.52 91.211-287.32 0.329-1.034 0.24-2.073 0.7-2.946-0.976-0.552-1.086-1.443-1.845-2.275zm-207.56-211.55 188.65 206.69-253.47-86.061 64.816-120.63zm-29.764 41.847-73.79-21.044 35.167-7.725 46.896 13.373-8.273 15.396zm-3.107 5.782-9.691 18.035-115.41-32.91 41.714-9.162-0.067 0.237 83.45 23.8zm-12.798 23.818-10.259 19.092-158.86-45.304 43.615-9.58 125.5 35.792zm27.284-50.777-36.795-10.492 48.11-10.567-11.315 21.059zm-207.1 26.913-0.334 1.173 166.78 47.563-11.996 22.324-205.74-59.794 51.291-11.266zm234.85 336.51-246.09-92.967 165.8-162.73 80.289 255.7zm-84.955-260.1-164.94 161.88-49.226-224.12 214.16 62.241zm-218.1-50.277 47.559 216.53-131.56 48.06 83.999-264.59zm-49.292 258.74 14.779 66.611-19.563-21.433-8.914-40.175 13.698-5.003zm6.075-2.219 13.695-5.003 23.246 104.77-19.56-21.431-17.381-78.337zm19.771-7.222 13.695-5.004 31.717 142.94-19.563-21.434-25.849-116.5zm19.771-7.223 13.695-5.004 40.182 181.09-19.559-21.43-34.318-154.66zm19.771-7.223 12.816-4.682 48.272 217.56-18.305-20.055-42.783-192.82zm-85.161 31.11 6.313 28.45-21.053-23.065 14.74-5.385zm154.93 191.27-50.874-229.28 13.959-5.1 56.094 255.4-19.179-21.013zm-30.143-233.44 245.13 92.605-187.26 170.91-57.878-263.52zm70.093 261.05 181.25-165.43 91.479 105.53-272.73 59.901zm277.31-64.404-91.323-105.35 175.67-160.34-84.345 265.69zm-93.863-111.71-80.05-254.93 261.92 88.933-181.87 166z" fill="#000000" stroke-linecap="round" vector-effect="non-scaling-stroke"/>
</g>
</g>
</g>
</g>
</g>
</svg>
